<svg xmlns="http://www.w3.org/2000/svg" width="24" height="24" viewBox="0 0 6.35 6.35" id="star"><path fill="#f4f4f4" d="M1.845 291.18a.264.265 0 0 0-.225.136l-.336.617-.617.336a.264.265 0 0 0 0 .465l.617.336.336.617a.264.265 0 0 0 .465 0l.338-.617.614-.336a.264.265 0 0 0 0-.465l-.614-.336-.338-.617a.264.265 0 0 0-.24-.137Zm.007.814.143.26a.264.265 0 0 0 .105.105l.26.142-.26.143a.264.265 0 0 0-.105.105l-.143.26-.14-.26a.264.265 0 0 0-.105-.105l-.26-.143.26-.142a.264.265 0 0 0 .105-.106zm2.646.243a.264.265 0 0 0-.265.264.264.265 0 0 0 .265.265.264.265 0 0 0 .264-.265.264.265 0 0 0-.264-.264zm-.007 1.586a.264.265 0 0 0-.001 0 .264.265 0 0 0-.225.14l-.336.614-.616.338a.264.265 0 0 0 0 .465l.616.336.336.616a.264.265 0 0 0 .465 0l.336-.616.617-.336a.264.265 0 0 0 0-.465l-.617-.338-.336-.615a.264.265 0 0 0-.24-.139zm.007.816.142.26a.264.265 0 0 0 .106.106l.26.142-.26.14a.264.265 0 0 0-.106.106l-.142.26-.143-.26a.264.265 0 0 0-.105-.105l-.26-.14.26-.143a.264.265 0 0 0 .105-.106zm-2.645.243a.264.265 0 0 0-.265.265.264.265 0 0 0 .265.264.264.265 0 0 0 .264-.264.264.265 0 0 0-.264-.265z" color="#000" font-family="sans-serif" font-weight="400" overflow="visible" transform="translate(0 -290.65)" style="line-height:normal;font-variant-ligatures:normal;font-variant-position:normal;font-variant-caps:normal;font-variant-numeric:normal;font-variant-alternates:normal;font-feature-settings:normal;text-indent:0;text-align:start;text-decoration-line:none;text-decoration-style:solid;text-decoration-color:#000;text-transform:none;text-orientation:mixed;shape-padding:0;isolation:auto;mix-blend-mode:normal"></path></svg>